<?xml version="1.0" encoding="UTF-8" standalone="no"?>
<!DOCTYPE svg PUBLIC "-//W3C//DTD SVG 1.1//EN"
 "http://www.w3.org/Graphics/SVG/1.1/DTD/svg11.dtd">
<!-- Generated by graphviz version 2.44.0 (0)
 -->
<!-- Pages: 1 -->
<svg width="373pt" height="332pt"
 viewBox="0.00 0.00 373.50 332.00" xmlns="http://www.w3.org/2000/svg" xmlns:xlink="http://www.w3.org/1999/xlink">
<g id="graph0" class="graph" transform="scale(1 1) rotate(0) translate(4 328)">
<polygon fill="white" stroke="transparent" points="-4,4 -4,-328 369.5,-328 369.5,4 -4,4"/>
<!-- light red -->
<g id="node1" class="node">
<title>light red</title>
<ellipse fill="none" stroke="black" cx="71.5" cy="-306" rx="48.19" ry="18"/>
<text text-anchor="middle" x="71.5" y="-302.3" font-family="Times-Roman" font-size="14.00">light red</text>
</g>
<!-- bright white -->
<g id="node2" class="node">
<title>bright white</title>
<ellipse fill="none" stroke="black" cx="226.5" cy="-234" rx="65.79" ry="18"/>
<text text-anchor="middle" x="226.5" y="-230.3" font-family="Times-Roman" font-size="14.00">bright white</text>
</g>
<!-- light red&#45;&gt;bright white -->
<g id="edge1" class="edge">
<title>light red&#45;&gt;bright white</title>
<path fill="none" stroke="black" d="M101.02,-291.67C124.65,-281 158.08,-265.9 184.5,-253.97"/>
<polygon fill="black" stroke="black" points="186.21,-257.04 193.88,-249.73 183.32,-250.66 186.21,-257.04"/>
</g>
<!-- muted yellow -->
<g id="node3" class="node">
<title>muted yellow</title>
<ellipse fill="none" stroke="black" cx="71.5" cy="-234" rx="71.5" ry="18"/>
<text text-anchor="middle" x="71.5" y="-230.3" font-family="Times-Roman" font-size="14.00">muted yellow</text>
</g>
<!-- light red&#45;&gt;muted yellow -->
<g id="edge2" class="edge">
<title>light red&#45;&gt;muted yellow</title>
<path fill="none" stroke="black" d="M71.5,-287.7C71.5,-279.98 71.5,-270.71 71.5,-262.11"/>
<polygon fill="black" stroke="black" points="75,-262.1 71.5,-252.1 68,-262.1 75,-262.1"/>
</g>
<!-- shiny gold -->
<g id="node4" class="node">
<title>shiny gold</title>
<ellipse fill="none" stroke="black" cx="191.5" cy="-162" rx="58" ry="18"/>
<text text-anchor="middle" x="191.5" y="-158.3" font-family="Times-Roman" font-size="14.00">shiny gold</text>
</g>
<!-- bright white&#45;&gt;shiny gold -->
<g id="edge3" class="edge">
<title>bright white&#45;&gt;shiny gold</title>
<path fill="none" stroke="black" d="M218.03,-216.05C214.01,-208.01 209.11,-198.2 204.62,-189.23"/>
<polygon fill="black" stroke="black" points="207.74,-187.66 200.14,-180.28 201.48,-190.79 207.74,-187.66"/>
</g>
<!-- muted yellow&#45;&gt;shiny gold -->
<g id="edge4" class="edge">
<title>muted yellow&#45;&gt;shiny gold</title>
<path fill="none" stroke="black" d="M98.43,-217.29C115.66,-207.24 138.16,-194.12 156.73,-183.28"/>
<polygon fill="black" stroke="black" points="158.6,-186.24 165.49,-178.18 155.08,-180.19 158.6,-186.24"/>
</g>
<!-- faded blue -->
<g id="node5" class="node">
<title>faded blue</title>
<ellipse fill="none" stroke="black" cx="71.5" cy="-18" rx="59.29" ry="18"/>
<text text-anchor="middle" x="71.5" y="-14.3" font-family="Times-Roman" font-size="14.00">faded blue</text>
</g>
<!-- muted yellow&#45;&gt;faded blue -->
<g id="edge5" class="edge">
<title>muted yellow&#45;&gt;faded blue</title>
<path fill="none" stroke="black" d="M71.5,-215.85C71.5,-178.83 71.5,-91.18 71.5,-46.39"/>
<polygon fill="black" stroke="black" points="75,-46.23 71.5,-36.23 68,-46.23 75,-46.23"/>
</g>
<!-- dark olive -->
<g id="node6" class="node">
<title>dark olive</title>
<ellipse fill="none" stroke="black" cx="154.5" cy="-90" rx="55.49" ry="18"/>
<text text-anchor="middle" x="154.5" y="-86.3" font-family="Times-Roman" font-size="14.00">dark olive</text>
</g>
<!-- shiny gold&#45;&gt;dark olive -->
<g id="edge6" class="edge">
<title>shiny gold&#45;&gt;dark olive</title>
<path fill="none" stroke="black" d="M182.55,-144.05C178.23,-135.89 172.96,-125.91 168.15,-116.82"/>
<polygon fill="black" stroke="black" points="171.14,-115 163.38,-107.79 164.95,-118.27 171.14,-115"/>
</g>
<!-- vibrant plum -->
<g id="node7" class="node">
<title>vibrant plum</title>
<ellipse fill="none" stroke="black" cx="296.5" cy="-90" rx="69" ry="18"/>
<text text-anchor="middle" x="296.5" y="-86.3" font-family="Times-Roman" font-size="14.00">vibrant plum</text>
</g>
<!-- shiny gold&#45;&gt;vibrant plum -->
<g id="edge7" class="edge">
<title>shiny gold&#45;&gt;vibrant plum</title>
<path fill="none" stroke="black" d="M214.81,-145.46C229.28,-135.81 248.11,-123.27 264.03,-112.65"/>
<polygon fill="black" stroke="black" points="266.15,-115.44 272.54,-106.98 262.27,-109.61 266.15,-115.44"/>
</g>
<!-- dark olive&#45;&gt;faded blue -->
<g id="edge10" class="edge">
<title>dark olive&#45;&gt;faded blue</title>
<path fill="none" stroke="black" d="M135.25,-72.77C124.36,-63.58 110.56,-51.94 98.58,-41.84"/>
<polygon fill="black" stroke="black" points="100.55,-38.92 90.65,-35.15 96.03,-44.27 100.55,-38.92"/>
</g>
<!-- dotted black -->
<g id="node9" class="node">
<title>dotted black</title>
<ellipse fill="none" stroke="black" cx="296.5" cy="-18" rx="67" ry="18"/>
<text text-anchor="middle" x="296.5" y="-14.3" font-family="Times-Roman" font-size="14.00">dotted black</text>
</g>
<!-- dark olive&#45;&gt;dotted black -->
<g id="edge11" class="edge">
<title>dark olive&#45;&gt;dotted black</title>
<path fill="none" stroke="black" d="M183.58,-74.67C204.69,-64.26 233.5,-50.06 256.74,-38.6"/>
<polygon fill="black" stroke="black" points="258.56,-41.6 265.99,-34.04 255.47,-35.32 258.56,-41.6"/>
</g>
<!-- vibrant plum&#45;&gt;faded blue -->
<g id="edge12" class="edge">
<title>vibrant plum&#45;&gt;faded blue</title>
<path fill="none" stroke="black" d="M253.92,-75.75C216.1,-63.98 160.82,-46.79 121.03,-34.41"/>
<polygon fill="black" stroke="black" points="121.85,-31 111.27,-31.37 119.78,-37.69 121.85,-31"/>
</g>
<!-- vibrant plum&#45;&gt;dotted black -->
<g id="edge13" class="edge">
<title>vibrant plum&#45;&gt;dotted black</title>
<path fill="none" stroke="black" d="M296.5,-71.7C296.5,-63.98 296.5,-54.71 296.5,-46.11"/>
<polygon fill="black" stroke="black" points="300,-46.1 296.5,-36.1 293,-46.1 300,-46.1"/>
</g>
<!-- dark orange -->
<g id="node8" class="node">
<title>dark orange</title>
<ellipse fill="none" stroke="black" cx="203.5" cy="-306" rx="65.79" ry="18"/>
<text text-anchor="middle" x="203.5" y="-302.3" font-family="Times-Roman" font-size="14.00">dark orange</text>
</g>
<!-- dark orange&#45;&gt;bright white -->
<g id="edge8" class="edge">
<title>dark orange&#45;&gt;bright white</title>
<path fill="none" stroke="black" d="M209.07,-288.05C211.66,-280.18 214.8,-270.62 217.7,-261.79"/>
<polygon fill="black" stroke="black" points="221.02,-262.87 220.83,-252.28 214.38,-260.68 221.02,-262.87"/>
</g>
<!-- dark orange&#45;&gt;muted yellow -->
<g id="edge9" class="edge">
<title>dark orange&#45;&gt;muted yellow</title>
<path fill="none" stroke="black" d="M174.54,-289.64C155.5,-279.54 130.38,-266.22 109.71,-255.26"/>
<polygon fill="black" stroke="black" points="111.33,-252.16 100.86,-250.57 108.05,-258.35 111.33,-252.16"/>
</g>
</g>
</svg>
